<?xml version="1.0" standalone="no"?>
<!DOCTYPE svg PUBLIC "-//W3C//DTD SVG 20010904//EN"
 "http://www.w3.org/TR/2001/REC-SVG-20010904/DTD/svg10.dtd">
<svg version="1.0" xmlns="http://www.w3.org/2000/svg"
 width="512.000000pt" height="512.000000pt" viewBox="0 0 512.000000 512.000000"
 preserveAspectRatio="xMidYMid meet">
<metadata>
Created by potrace 1.16, written by Peter Selinger 2001-2019
</metadata>
<g transform="translate(0.000000,512.000000) scale(0.100000,-0.100000)"
fill="#000000" stroke="none">
<path d="M2188 4715 c-171 -29 -360 -94 -541 -187 -99 -51 -299 -186 -347
-235 -14 -14 4 -5 39 21 282 205 620 341 984 396 l122 18 -90 0 c-49 0 -125
-6 -167 -13z"/>
<path d="M2330 4420 c-263 -48 -478 -139 -705 -299 -105 -73 -357 -325 -422
-422 -71 -103 -156 -268 -189 -364 -15 -44 -33 -87 -39 -95 -38 -46 -76 -190
-90 -336 l-7 -72 -27 11 c-37 14 -80 1 -90 -26 -5 -13 -7 -62 -4 -110 5 -81 4
-87 -13 -87 -11 0 -30 -7 -43 -16 -22 -16 -23 -20 -17 -108 4 -50 8 -208 9
-351 l2 -260 36 -65 c20 -36 71 -130 114 -210 99 -185 115 -207 220 -310 165
-161 240 -283 252 -414 6 -72 -16 -225 -58 -397 -30 -124 -107 -370 -140 -446
l-18 -43 38 0 c46 0 44 -4 114 220 91 289 127 469 127 639 0 103 0 103 23 96
37 -13 337 -16 407 -5 36 6 76 18 90 26 24 14 23 14 -15 7 -22 -5 -132 -8
-245 -8 -199 0 -206 1 -243 24 -22 13 -70 65 -110 120 -39 53 -125 153 -191
222 -107 111 -129 141 -189 250 -37 68 -90 163 -118 211 l-51 87 -2 253 c-1
253 9 414 26 424 17 11 57 -38 79 -95 24 -64 32 -216 12 -229 -8 -5 -8 -21 3
-62 22 -81 9 -159 -43 -251 -2 -3 9 -4 25 -1 54 8 134 -104 181 -254 17 -54
33 -82 67 -118 35 -36 44 -51 38 -68 -6 -20 -4 -19 27 5 19 14 47 29 63 33 26
6 27 5 17 -14 -19 -35 -13 -47 12 -24 16 15 46 24 109 33 198 27 450 -44 586
-166 79 -71 95 -108 102 -245 6 -107 10 -121 49 -208 l43 -94 -36 -79 c-20
-43 -50 -120 -66 -170 -34 -105 -96 -392 -106 -492 l-7 -67 36 0 c33 0 37 3
41 33 71 454 119 627 202 734 52 66 55 99 19 158 -51 85 -75 135 -81 173 -13
82 40 236 124 358 22 33 92 115 156 184 141 151 238 290 307 439 29 61 54 110
56 108 2 -2 -4 -33 -14 -68 -10 -39 -14 -75 -9 -93 10 -39 60 -84 102 -92 75
-14 102 11 141 125 28 86 30 42 4 -79 -23 -100 -48 -169 -130 -345 -33 -71
-71 -164 -85 -206 -30 -89 -79 -329 -74 -361 3 -21 5 -21 21 9 15 27 31 88 63
232 5 23 6 23 18 5 25 -36 26 -73 6 -176 -11 -57 -24 -157 -30 -223 l-9 -119
60 -79 c119 -159 198 -374 224 -612 11 -104 11 -105 50 -105 33 0 35 2 35 35
0 53 -27 226 -56 354 -33 147 -83 289 -145 413 -57 114 -79 190 -78 268 l1 55
9 -44 c10 -52 44 -124 66 -143 15 -11 16 -11 9 7 -27 67 -38 119 -39 192 -1
77 1 86 43 170 39 79 57 101 181 224 165 162 176 182 244 434 77 290 143 393
245 382 50 -6 100 -51 100 -90 -1 -18 -3 -17 -15 10 -24 56 -96 78 -154 48
-54 -28 -102 -173 -70 -212 39 -46 170 -70 203 -37 17 16 20 27 35 109 l9 50
1 -50 c0 -27 -4 -129 -9 -225 -8 -156 -13 -188 -45 -300 -40 -138 -54 -288
-37 -410 8 -63 14 -65 27 -7 8 37 25 30 50 -19 26 -50 24 -48 29 -43 3 3 0 23
-6 46 -10 41 -9 44 26 84 26 31 36 52 36 76 l0 33 53 0 c67 -1 95 -17 123 -71
l22 -44 7 49 c4 27 5 84 2 126 -5 69 -4 80 14 99 22 23 37 22 92 -6 45 -23 43
-7 -2 22 -47 32 -46 40 22 102 75 69 164 103 220 84 44 -16 45 -5 3 20 -32 19
-37 25 -31 48 4 14 14 34 22 44 18 19 73 23 105 6 35 -19 30 -3 -7 22 -20 13
-38 34 -41 47 -10 37 5 89 35 121 26 28 35 31 88 31 45 1 54 3 40 11 -10 6
-38 11 -63 12 -42 2 -44 3 -44 32 0 45 40 116 79 142 38 26 118 32 139 11 18
-18 15 -57 -9 -124 -11 -32 -44 -159 -73 -282 -38 -158 -61 -233 -77 -256 -13
-18 -125 -130 -249 -248 -415 -397 -555 -540 -579 -590 -61 -130 -47 -287 60
-670 l41 -148 119 0 119 0 -35 69 c-81 162 -205 510 -227 642 -19 111 -11 124
235 370 117 116 285 282 375 367 90 86 172 170 182 188 11 17 42 129 70 249
27 120 61 251 75 291 31 89 31 127 4 166 -21 29 -21 31 -5 89 9 32 16 81 16
108 0 43 -4 53 -32 76 -26 22 -39 26 -71 22 -41 -6 -92 -45 -103 -79 -3 -11
-15 -18 -31 -18 -43 0 -88 -55 -102 -127 -7 -35 -13 -63 -15 -63 -1 0 -1 92 2
204 3 130 0 240 -8 303 -14 116 -68 335 -105 424 -14 35 -35 101 -45 147 -38
158 -107 258 -316 455 -309 290 -588 448 -929 528 -134 31 -496 37 -645 9z
m495 -30 c245 -28 518 -132 737 -282 100 -68 293 -231 326 -274 62 -82 199
-298 230 -362 31 -64 34 -79 30 -135 -3 -35 -15 -84 -28 -112 -27 -58 -29 -78
-32 -355 -3 -201 -4 -207 -35 -300 -18 -52 -32 -111 -33 -130 0 -19 -2 -57 -3
-84 -1 -39 3 -52 21 -66 15 -12 22 -29 22 -52 0 -31 -3 -34 -32 -36 -17 -2
-37 -7 -44 -12 -8 -8 -15 3 -24 37 -17 62 -43 113 -69 137 -25 23 -81 17 -122
-13 -27 -20 -27 -20 -44 0 -18 18 -17 19 9 19 45 0 28 31 -29 53 -27 10 -60
23 -72 28 -14 5 -23 17 -23 29 0 33 -25 34 -71 1 -93 -68 -226 -90 -391 -66
-114 16 -116 16 -157 -4 -23 -12 -41 -20 -41 -17 0 2 42 32 93 67 96 65 224
168 266 213 49 53 11 34 -100 -50 -63 -47 -152 -111 -199 -142 l-85 -56 -130
-4 c-137 -5 -169 -13 -210 -58 l-23 -24 -20 32 c-23 35 -21 48 8 48 24 0 197
88 270 138 53 36 55 39 62 92 3 30 11 71 17 90 15 48 16 45 -34 81 -25 18 -45
36 -45 41 0 4 24 8 54 8 43 0 56 4 60 18 16 54 37 185 34 214 -2 26 -9 11 -32
-73 -16 -59 -32 -112 -35 -118 -4 -6 -38 -14 -74 -18 -55 -5 -74 -2 -102 13
-39 21 -50 16 -41 -19 4 -17 20 -30 53 -44 27 -11 67 -35 91 -52 l42 -31 -15
-36 c-8 -20 -15 -54 -15 -75 0 -37 -3 -41 -69 -84 -89 -57 -153 -89 -221 -111
-30 -10 -58 -22 -62 -27 -9 -14 7 -51 43 -105 27 -40 31 -55 36 -146 6 -106 2
-123 -52 -216 -10 -17 -13 -41 -9 -75 6 -47 4 -52 -30 -85 -42 -40 -52 -35
-80 43 -10 26 -23 48 -29 48 -101 10 -129 19 -242 80 -172 91 -210 134 -260
292 -32 99 -31 103 4 42 52 -91 136 -128 191 -85 34 26 39 25 76 -15 21 -24
41 -35 59 -35 15 0 76 -16 136 -36 114 -38 131 -39 187 -4 22 13 32 27 32 44
0 14 -25 73 -55 133 -30 59 -55 117 -55 128 0 17 16 26 86 49 92 32 215 99
252 139 20 21 21 27 11 51 -10 22 -9 29 4 44 18 20 22 42 9 42 -16 0 -147 92
-191 134 -58 54 -121 154 -156 244 -16 40 -32 75 -37 78 -4 3 -20 -4 -35 -16
-19 -13 -57 -24 -116 -31 -51 -7 -97 -19 -108 -28 -20 -16 -20 -17 6 -106 52
-177 129 -332 208 -417 23 -25 24 -33 23 -130 l-1 -103 52 -95 c29 -52 53
-100 53 -106 0 -6 -12 -17 -28 -23 -23 -10 -44 -7 -129 19 -56 16 -114 30
-129 30 -18 0 -38 13 -63 40 -20 22 -44 40 -52 40 -9 0 -33 -12 -54 -26 -53
-36 -95 -22 -128 43 -20 38 -21 86 -5 163 15 75 7 100 -47 139 -41 30 -45 36
-45 75 0 38 -5 47 -45 83 -31 27 -45 48 -45 65 0 18 -11 33 -40 52 -45 29 -45
29 -28 59 7 12 15 62 18 112 l5 90 45 7 c25 4 66 10 92 13 35 5 72 22 138 65
49 33 90 61 90 63 0 1 -18 47 -40 101 -42 104 -48 134 -28 166 10 15 10 25 2
38 -17 27 -27 17 -42 -41 -13 -54 -12 -57 23 -152 20 -53 35 -98 33 -99 -2 -1
-35 -23 -74 -48 -61 -42 -81 -49 -150 -58 -43 -6 -96 -18 -117 -27 -29 -13
-43 -14 -61 -5 -19 8 -27 8 -36 -3 -16 -19 -8 -28 40 -50 39 -18 40 -19 40
-68 0 -27 -8 -71 -17 -97 l-17 -48 35 -48 c18 -27 58 -72 88 -101 51 -49 53
-54 48 -90 -6 -33 -3 -40 24 -63 l30 -25 -22 -70 c-19 -62 -21 -77 -11 -136
14 -84 65 -216 103 -269 64 -88 294 -225 400 -238 41 -5 55 -11 57 -25 21
-109 -248 -3 -445 175 -44 40 -112 99 -152 131 -76 61 -125 126 -142 190 -6
23 -7 80 -3 145 9 144 -5 210 -52 252 -57 50 -104 75 -194 105 -47 15 -106 38
-132 52 -45 22 -48 26 -48 64 0 90 61 313 115 419 14 27 23 50 19 50 -3 0 -25
-42 -49 -93 -48 -104 -88 -229 -106 -329 -6 -38 -13 -68 -15 -68 -2 0 -18 9
-36 20 -18 11 -36 20 -39 20 -30 0 -39 -279 -14 -423 41 -233 173 -542 286
-668 l39 -44 -45 67 c-122 179 -239 506 -265 739 -12 105 -5 279 10 279 5 0
22 -8 39 -17 30 -18 31 -19 31 -98 1 -117 21 -212 80 -375 52 -143 167 -397
176 -388 2 3 -7 25 -20 49 -60 107 -161 405 -190 557 -22 116 -28 215 -13 209
7 -3 68 -29 137 -57 73 -29 137 -62 153 -79 47 -46 77 -146 77 -255 0 -99 18
-177 53 -236 31 -51 105 -128 157 -163 25 -16 77 -60 115 -97 130 -124 295
-212 436 -232 46 -6 86 -13 88 -15 2 -1 -29 -38 -70 -80 -70 -74 -163 -190
-171 -214 -2 -7 -36 -5 -112 9 -128 23 -127 11 2 -21 l91 -22 -20 -45 c-11
-24 -22 -46 -24 -48 -2 -3 -39 24 -82 58 -133 106 -281 169 -466 196 -56 8
-109 17 -118 20 -22 6 -174 165 -225 234 -65 88 -121 190 -163 291 -100 246
-144 603 -107 859 19 127 40 184 87 238 18 20 52 78 75 129 54 116 95 181 197
308 104 130 194 223 288 296 42 33 94 81 116 107 49 58 141 112 154 91 13 -21
11 -45 -6 -59 -13 -11 -14 -10 -9 5 6 14 3 16 -17 10 -65 -19 -104 -68 -96
-118 4 -28 1 -34 -27 -47 -26 -13 -31 -20 -30 -50 0 -19 4 -42 8 -51 5 -11 -1
-19 -19 -27 -14 -7 -25 -20 -25 -31 0 -11 -19 -41 -42 -68 -112 -129 -163
-252 -163 -393 0 -113 7 -133 67 -196 l51 -54 -21 -79 c-12 -43 -22 -96 -22
-117 0 -35 6 -44 56 -89 55 -49 56 -52 70 -130 10 -56 13 -113 8 -190 -6 -105
-5 -113 19 -160 16 -33 47 -68 91 -104 37 -29 69 -51 72 -48 3 3 -4 23 -14 44
-43 84 -142 428 -142 494 0 38 -28 81 -89 138 -17 16 -31 36 -31 44 0 8 11 59
25 112 23 89 24 100 10 121 -8 13 -24 28 -35 34 -11 6 -32 32 -47 58 -25 42
-28 57 -28 132 1 137 60 273 159 369 20 20 36 45 36 57 0 18 11 27 55 43 31
12 60 21 65 21 5 0 17 10 27 23 14 17 29 23 65 24 59 2 84 -20 68 -61 -8 -23
-6 -31 14 -51 15 -15 21 -27 14 -31 -6 -4 -31 14 -55 40 -45 46 -66 55 -78 36
-3 -5 -14 -10 -24 -10 -14 0 -21 -10 -26 -36 -3 -20 -4 -38 -2 -41 3 -2 22 3
42 12 38 15 38 15 83 -20 54 -41 64 -43 89 -11 18 22 22 23 61 13 46 -12 45
-10 58 -142 12 -135 56 -235 138 -314 l45 -44 50 31 50 31 43 -35 c95 -75 214
-88 321 -36 74 37 105 39 163 13 46 -21 73 -54 128 -153 41 -76 89 -128 117
-128 11 0 25 -13 35 -32 27 -53 72 -106 117 -136 34 -22 47 -41 72 -102 27
-66 34 -75 59 -78 19 -2 36 4 52 19 22 20 114 179 114 196 0 13 -61 -52 -90
-97 -26 -39 -67 -77 -75 -68 -1 2 -12 33 -25 71 -18 57 -29 73 -68 103 -102
78 -164 204 -136 278 11 29 24 17 24 -22 0 -55 26 -125 58 -154 15 -14 48 -38
75 -53 45 -26 47 -26 47 -7 0 12 -21 38 -50 64 -44 37 -53 51 -65 103 -8 33
-14 63 -15 68 0 4 23 7 50 7 88 0 168 55 156 107 -4 15 -8 44 -10 63 -2 19 -7
45 -11 57 -5 16 -1 25 19 38 26 17 36 16 68 -7 22 -16 73 12 134 73 55 56 55
79 -1 97 -21 7 -41 15 -43 17 -2 2 17 23 42 48 64 60 62 110 -4 157 -44 31
-58 15 -21 -24 33 -34 33 -49 1 -118 l-13 -28 -33 38 c-28 31 -33 45 -34 88 0
33 -5 56 -15 64 -23 19 -88 110 -82 116 2 3 28 -4 56 -16 72 -28 72 -26 7 20
-66 46 -96 47 -96 2 0 -30 16 -57 66 -114 30 -34 33 -41 29 -92 -3 -30 0 -58
5 -61 6 -3 10 -13 10 -22 0 -13 -8 -15 -43 -10 -48 7 -59 2 -76 -31 -7 -13
-38 -36 -69 -50 -49 -23 -70 -27 -152 -27 -92 0 -98 1 -179 43 -100 50 -141
54 -197 16 -38 -26 -77 -29 -127 -9 -16 7 -18 4 -15 -16 2 -18 13 -26 47 -36
59 -17 60 -20 18 -38 -57 -24 -63 -20 -75 37 -14 73 -10 79 53 72 73 -9 78 10
7 26 -108 24 -178 73 -224 159 -12 21 -27 33 -48 37 -20 5 -43 23 -70 57 -22
27 -40 54 -40 58 0 5 18 36 40 68 71 104 81 149 42 194 -12 14 -32 17 -112 17
-93 0 -97 -1 -124 -29 -21 -22 -39 -30 -84 -35 -31 -3 -69 -9 -84 -12 -21 -5
-29 -2 -34 11 -9 23 14 36 52 29 25 -5 41 1 81 30 119 85 328 138 553 138 187
1 324 -24 503 -89 73 -28 80 -39 52 -93 -15 -29 -22 -33 -84 -45 -21 -5 -35
-14 -38 -26 -3 -11 -8 -18 -12 -16 -87 46 -140 55 -208 32 -18 -6 -23 -3 -29
18 -8 35 -93 113 -148 136 -91 39 -249 36 -215 -5 10 -12 26 -14 89 -8 l76 6
61 -51 c68 -56 78 -75 63 -116 -17 -45 1 -53 62 -26 89 39 109 39 210 -9 93
-44 122 -45 99 -2 -14 27 -14 42 2 42 6 0 29 5 49 11 40 10 68 48 68 89 0 20
5 18 81 -21 l80 -42 -2 -54 c-2 -36 2 -58 12 -68 12 -12 14 -7 17 37 1 28 4
53 6 56 8 8 100 -61 174 -132 l74 -71 -6 -52 c-6 -50 -4 -55 41 -120 27 -37
71 -113 100 -168 29 -55 52 -94 53 -87 0 25 -62 162 -111 244 -39 65 -48 87
-41 106 7 22 10 20 55 -40 103 -137 177 -340 177 -486 0 -60 -4 -74 -28 -108
-16 -21 -36 -45 -44 -52 -14 -11 -17 -10 -23 7 -7 24 3 71 21 91 33 39 58 140
34 140 -5 0 -10 -12 -10 -27 0 -15 -16 -54 -36 -86 -33 -53 -36 -64 -31 -109
5 -41 2 -56 -17 -86 -13 -21 -36 -62 -51 -92 l-27 -54 -21 30 c-31 43 -94 100
-126 113 -25 11 -31 9 -65 -24 -21 -19 -42 -35 -47 -35 -5 0 -9 -6 -9 -14 0
-8 -20 -32 -44 -53 -42 -36 -50 -50 -47 -80 1 -17 41 -17 41 0 0 14 103 135
132 156 18 12 25 10 61 -15 22 -16 56 -51 75 -79 18 -27 40 -54 48 -58 21 -12
44 10 44 43 0 15 14 54 30 85 17 31 30 65 30 76 0 13 5 16 16 12 10 -4 32 11
64 45 67 69 79 123 57 253 -33 197 -89 321 -208 462 -142 169 -260 268 -433
361 -336 183 -819 224 -1146 98 -41 -16 -90 -32 -109 -36 -29 -5 -32 -4 -21 9
7 8 10 24 7 36 -5 17 2 24 36 39 23 10 74 25 113 33 39 8 111 33 160 55 82 37
96 40 179 41 50 0 131 -4 180 -9z m-440 -19 c-6 -5 -53 -21 -106 -35 -105 -28
-232 -77 -331 -127 -76 -38 -189 -82 -195 -75 -14 14 196 127 317 171 144 52
344 94 315 66z m-287 -157 c-9 -9 -21 -13 -28 -9 -14 9 5 25 30 25 12 0 12 -3
-2 -16z m-113 -44 c-3 -5 -11 -10 -16 -10 -6 0 -7 5 -4 10 3 6 11 10 16 10 6
0 7 -4 4 -10z m115 -10 c11 -21 4 -25 -19 -11 -7 5 -10 14 -7 20 10 15 14 14
26 -9z m367 -69 c14 -30 1 -68 -49 -135 -45 -61 -65 -68 -191 -62 -59 2 -109
1 -111 -3 -7 -11 7 -28 31 -35 21 -7 21 -8 5 -36 -19 -33 -30 -37 -38 -15 -9
22 -33 18 -44 -7 -8 -18 -9 -12 -5 23 l6 46 -47 22 c-48 23 -63 19 -64 -18 0
-11 -4 -10 -13 4 -11 14 -22 17 -45 12 -21 -4 -34 -1 -43 9 -16 20 0 31 54 40
29 5 47 17 74 51 20 24 42 42 49 39 7 -3 41 2 76 10 34 8 76 13 92 10 32 -7
83 19 92 46 5 17 50 26 124 24 26 -1 37 -7 47 -25z m-560 -76 c-4 -33 -12 -39
-35 -26 -13 7 -22 7 -30 -1 -9 -9 -12 -9 -12 0 0 12 56 52 73 52 4 0 6 -11 4
-25z m-322 -50 c-28 -24 -63 -51 -80 -61 l-30 -17 35 38 c43 46 111 97 119 89
3 -3 -17 -25 -44 -49z m215 -77 c0 -25 -27 -58 -47 -58 -19 0 -16 17 8 51 24
34 39 37 39 7z m-421 -45 c-38 -57 -138 -194 -152 -208 -21 -23 44 95 79 141
36 48 95 114 101 114 2 0 -10 -21 -28 -47z m1013 -40 c38 -37 47 -53 28 -53
-16 0 -80 61 -80 76 0 22 11 17 52 -23z m-391 -24 c-5 -13 -10 -19 -10 -12 -1
15 10 45 15 40 3 -2 0 -15 -5 -28z m244 21 c3 -5 -1 -10 -10 -10 -9 0 -13 5
-10 10 3 6 8 10 10 10 2 0 7 -4 10 -10z m77 -47 c15 -15 28 -34 27 -42 0 -15
-56 -68 -63 -60 -2 2 -6 32 -9 67 -8 71 1 77 45 35z m1763 -118 c41 -58 64
-95 53 -85 -20 18 -136 181 -118 165 12 -11 41 -47 65 -80z m-1849 27 c10 -26
28 -61 41 -78 27 -36 29 -73 8 -114 -19 -37 -32 -38 -45 -5 -11 30 -40 24 -40
-9 0 -22 56 -104 116 -167 28 -30 31 -38 18 -43 -20 -8 -83 58 -112 118 -28
55 -49 137 -57 222 l-6 69 25 -69 c29 -79 28 -78 50 -70 17 7 21 34 7 50 -5 5
-20 36 -34 69 -18 42 -22 64 -15 72 15 18 24 9 44 -45z m157 -26 c10 -15 30
-26 54 -31 49 -9 73 -31 73 -67 0 -36 34 -109 64 -137 28 -27 77 -42 98 -30
11 6 20 4 28 -6 31 -38 130 7 156 71 27 65 83 69 192 17 75 -37 80 -38 192
-38 108 0 119 2 173 30 33 16 68 41 79 54 14 19 27 25 48 23 21 -3 33 3 42 17
17 28 28 27 28 -3 0 -13 9 -35 21 -50 17 -21 19 -29 9 -41 -7 -8 -21 -15 -32
-15 -11 0 -33 -11 -50 -25 -16 -14 -40 -25 -53 -25 -35 0 -68 -51 -60 -91 4
-18 2 -36 -6 -45 -10 -12 -8 -20 10 -45 22 -29 22 -32 6 -49 -28 -31 -80 -43
-150 -35 -39 4 -71 2 -84 -4 -26 -14 -45 -74 -38 -122 3 -22 1 -39 -3 -39 -12
0 -61 72 -94 138 -34 68 -90 129 -135 149 -23 10 -64 16 -113 16 -65 1 -82 -3
-115 -25 -21 -13 -51 -28 -66 -32 -43 -10 -128 18 -188 64 -51 39 -62 42 -108
29 -9 -3 -28 20 -52 59 l-37 64 23 34 c31 46 39 84 26 130 -9 34 -8 41 11 61
27 29 32 29 51 -1z m279 -122 c-2 -12 1 -31 7 -43 13 -24 -1 -61 -22 -61 -7 0
-30 18 -51 39 -33 33 -39 47 -45 100 -4 34 -6 63 -3 65 2 3 30 -14 61 -37 45
-32 57 -46 53 -63z m1038 -56 c-1 -18 -48 -74 -56 -66 -3 4 7 23 23 42 31 40
33 41 33 24z m-105 -87 c-3 -6 -11 -11 -17 -11 -6 0 -6 6 2 15 14 17 26 13 15
-4z m644 -183 c68 -205 96 -408 88 -633 -6 -175 -23 -275 -72 -440 -61 -203
-196 -450 -301 -547 l-29 -27 -65 19 -65 18 40 17 c111 46 146 68 186 118 36
46 95 147 86 147 -3 0 -23 -29 -46 -64 -60 -93 -110 -132 -206 -161 -44 -13
-100 -27 -124 -31 l-43 -7 17 34 c10 19 42 63 73 99 53 63 122 162 122 176 0
4 -26 -27 -59 -67 -32 -41 -70 -85 -84 -98 l-26 -23 12 40 c7 22 31 59 55 83
23 24 63 83 88 132 25 48 46 87 48 87 2 0 20 -7 41 -15 24 -11 60 -15 103 -13
l67 3 0 73 c0 66 -3 76 -25 95 -32 28 -30 74 5 87 28 11 33 35 23 114 -8 56
-7 60 23 94 35 40 79 126 79 157 1 42 20 -9 20 -55 1 -33 3 -40 9 -25 8 20 7
39 -24 238 -18 122 -55 258 -86 319 l-21 40 24 54 c13 29 26 54 30 54 3 0 20
-42 37 -92z m-1839 -75 c43 -135 160 -280 277 -344 44 -24 63 -40 63 -54 0
-11 2 -29 5 -40 4 -15 -7 -29 -43 -55 -46 -34 -190 -101 -245 -114 l-28 -7 7
50 c6 50 6 51 -45 108 -61 68 -146 230 -187 357 -32 98 -29 105 36 107 19 0
55 6 80 13 66 20 67 19 80 -21z m1760 -43 c0 -14 -11 -38 -25 -55 l-24 -30 -1
25 c0 38 31 114 41 98 5 -7 9 -24 9 -38z m50 -130 c32 -131 26 -243 -18 -331
-33 -65 -106 -158 -117 -147 -3 3 4 39 16 79 16 58 22 112 26 244 6 170 6 170
35 208 16 20 31 37 33 37 1 0 13 -41 25 -90z m456 -358 c22 -15 23 -44 3 -119
-11 -43 -23 -81 -27 -84 -4 -4 -29 -9 -56 -12 l-49 -5 6 53 c6 59 27 107 65
148 26 28 39 32 58 19z m-3959 -34 c-3 -8 -6 -5 -6 6 -1 11 2 17 5 13 3 -3 4
-12 1 -19z m3418 -174 c7 -42 1 -51 -44 -64 -28 -8 -33 -6 -43 15 -11 25 -4
60 11 51 5 -3 20 3 32 14 33 27 36 25 44 -16z m-1227 7 c-20 -4 -47 -15 -60
-23 -37 -25 -132 -154 -175 -240 l-39 -77 -12 147 c-13 164 -12 167 52 176 71
11 194 23 231 23 l40 1 -37 -7z m102 -59 c40 -30 62 -110 63 -232 1 -123 -21
-222 -88 -396 -24 -61 -56 -156 -71 -210 -14 -55 -31 -110 -36 -123 l-9 -24
-24 23 -24 22 26 72 c14 39 52 132 85 206 75 169 103 256 119 361 28 196 -18
308 -130 310 -36 0 -42 2 -26 9 28 13 85 4 115 -18z m856 -29 c31 -33 54 -111
54 -180 0 -40 -8 -69 -30 -113 -28 -55 -115 -159 -124 -149 -2 2 0 69 5 149 4
84 4 172 -1 210 -5 36 -10 69 -10 73 0 8 56 36 73 37 4 0 19 -12 33 -27z
m-198 -3 c44 -27 53 -56 41 -130 -11 -57 -12 -60 -41 -60 -16 0 -58 7 -93 16
-73 18 -74 20 -49 103 26 90 73 113 142 71z m-696 -10 c32 -25 52 -72 45 -107
-4 -24 -19 -64 -67 -180 -7 -16 -18 -23 -38 -23 -39 0 -120 53 -128 84 -11 47
32 208 64 232 26 20 95 17 124 -6z m1411 -58 c-10 -15 -23 -36 -27 -47 -13
-34 -28 -127 -30 -182 -1 -42 -5 -54 -22 -62 -21 -9 -54 -67 -54 -94 0 -15
-40 -51 -48 -43 -2 2 10 30 26 62 34 68 76 184 122 334 29 92 34 102 43 82 8
-18 6 -28 -10 -50z m-963 52 c0 -1 -13 -30 -29 -65 -16 -35 -44 -118 -62 -184
-18 -66 -36 -124 -40 -129 -4 -5 -32 -5 -65 0 l-58 9 -2 100 c-2 79 -7 116
-28 174 -14 40 -30 79 -35 85 -7 8 34 11 155 11 90 0 164 -1 164 -1z m-2445
-173 c18 -51 31 -99 28 -107 -6 -17 -38 -27 -63 -19 -18 6 -20 15 -20 83 0 42
-5 93 -10 113 -7 26 -7 45 1 65 l12 29 9 -35 c5 -19 25 -77 43 -129z m3154 37
c6 -17 11 -44 11 -59 0 -25 -4 -29 -27 -29 -50 1 -115 17 -131 33 -24 25 6 62
65 80 59 17 69 14 82 -25z m-2992 -337 c15 -20 65 -75 112 -123 46 -49 79 -88
71 -88 -28 0 -123 84 -176 155 -30 41 -66 85 -80 98 -22 21 -24 29 -18 61 l7
38 28 -53 c16 -28 41 -68 56 -88z m2131 41 c22 -15 1 -43 -61 -83 -58 -38 -56
-54 3 -24 17 9 30 12 30 7 0 -15 -67 -98 -94 -115 -29 -19 -59 -12 -52 12 9
30 35 126 46 169 l11 42 52 0 c29 0 58 -4 65 -8z m582 -313 c27 -6 50 -16 50
-22 0 -26 -71 -61 -132 -65 -66 -5 -78 2 -78 50 0 22 6 29 33 37 44 13 68 13
127 0z"/>
<path d="M4043 2958 c-4 -7 -8 -44 -8 -82 0 -65 -2 -70 -30 -90 -16 -12 -44
-35 -60 -52 -29 -29 -32 -30 -64 -17 -85 35 -171 -54 -171 -175 0 -66 16 -80
70 -58 l39 16 46 -40 c66 -57 151 -66 131 -15 -4 12 -14 16 -33 12 -21 -4 -34
4 -69 39 -43 45 -63 51 -108 34 -25 -9 -26 -8 -26 28 0 44 31 98 65 114 21 9
30 7 65 -16 39 -26 47 -41 52 -101 2 -22 8 -30 22 -30 36 0 41 28 17 88 l-22
55 49 46 c55 51 72 94 72 178 0 58 -19 93 -37 66z"/>
<path d="M981 2534 c0 -11 3 -14 6 -6 3 7 2 16 -1 19 -3 4 -6 -2 -5 -13z"/>
<path d="M996 2467 c18 -166 163 -469 271 -568 16 -15 3 11 -34 66 -103 155
-180 326 -237 530 -3 11 -3 -1 0 -28z"/>
<path d="M1410 2307 c0 -16 65 -136 118 -217 174 -269 441 -492 640 -535 56
-12 35 9 -49 49 -240 115 -515 379 -668 641 -23 38 -41 66 -41 62z"/>
<path d="M2039 2092 c15 -27 79 -82 96 -82 24 0 19 6 -46 55 -34 26 -56 38
-50 27z"/>
<path d="M1441 1993 c41 -69 131 -183 178 -225 53 -47 153 -114 228 -152 61
-30 197 -71 268 -79 40 -5 33 -2 -37 18 -266 74 -488 229 -625 436 -33 50 -42
51 -12 2z"/>
<path d="M1959 1806 c23 -27 95 -74 127 -82 22 -5 16 2 -26 28 -30 19 -68 43
-85 53 -27 18 -29 18 -16 1z"/>
<path d="M2122 3990 c-17 -14 -32 -18 -53 -13 -33 6 -40 -11 -10 -27 26 -14
54 -13 70 3 6 6 26 12 44 12 25 0 32 4 32 20 0 28 -52 31 -83 5z"/>
<path d="M3466 4393 c-10 -26 23 -48 42 -29 8 8 12 22 9 30 -8 21 -43 20 -51
-1z"/>
<path d="M1278 3848 c-64 -63 -148 -172 -214 -282 -48 -80 -114 -220 -114
-243 0 -23 20 -13 31 14 24 65 111 227 159 298 29 43 88 120 132 171 43 52 75
94 70 94 -5 0 -34 -24 -64 -52z"/>
<path d="M767 3654 c-4 -4 -7 -16 -7 -26 0 -14 6 -19 23 -16 14 2 22 10 22 23
0 20 -25 32 -38 19z"/>
<path d="M4310 3395 c-10 -12 -10 -18 0 -30 16 -19 39 -19 46 0 6 15 -11 45
-26 45 -4 0 -13 -7 -20 -15z"/>
<path d="M730 3290 c-16 -16 -18 -25 -10 -40 15 -27 27 -32 50 -20 22 12 27
49 8 68 -17 17 -25 15 -48 -8z"/>
<path d="M2649 1816 c35 -36 123 -81 144 -73 7 3 -8 14 -33 25 -25 11 -62 34
-84 51 -52 41 -68 40 -27 -3z"/>
<path d="M3400 1840 c0 -14 90 -57 141 -69 126 -28 158 -17 37 13 -38 9 -93
27 -123 41 -30 13 -55 20 -55 15z"/>
<path d="M3419 1776 c31 -33 101 -56 165 -55 l51 1 -66 12 c-36 6 -90 24 -120
40 l-54 28 24 -26z"/>
<path d="M2635 1770 c24 -39 157 -88 187 -69 9 6 4 9 -14 9 -35 0 -133 37
-148 55 -14 17 -35 21 -25 5z"/>
<path d="M1880 799 c0 -8 -29 -109 -65 -224 -36 -116 -65 -214 -65 -220 1 -20
19 22 69 163 48 134 80 276 67 289 -3 4 -6 0 -6 -8z"/>
</g>
</svg>